<svg width="100" height="100" viewBox="0 0 100 100" fill="none" xmlns="http://www.w3.org/2000/svg">
<g clip-path="url(#clip0_802_103)">
<mask id="mask0_802_103" style="mask-type:alpha" maskUnits="userSpaceOnUse" x="0" y="0" width="100" height="100">
<path d="M50 100C77.6142 100 100 77.6142 100 50C100 22.3858 77.6142 0 50 0C22.3858 0 0 22.3858 0 50C0 77.6142 22.3858 100 50 100Z" fill="black"/>
</mask>
<g mask="url(#mask0_802_103)">
<g clip-path="url(#clip1_802_103)">
<path d="M79.1666 0.306152H20.8334C9.32743 0.306152 0 9.63358 0 21.1395V79.4728C0 90.9787 9.32743 100.306 20.8334 100.306H79.1666C90.6726 100.306 100 90.9787 100 79.4728V21.1395C100 9.63358 90.6726 0.306152 79.1666 0.306152Z" fill="#6D68E4"/>
<path d="M50.0028 37.1906C47.9066 37.1906 46.2053 35.4893 46.2053 33.393V24.9375C46.2053 22.8413 47.9066 21.14 50.0028 21.14C52.0989 21.14 53.8001 22.8413 53.8001 24.9375V33.393C53.8001 35.4893 52.0989 37.1906 50.0028 37.1906Z" fill="white"/>
<path d="M61.96 42.1431C60.9879 42.1431 60.0157 41.7734 59.2739 41.0317C57.7904 39.5483 57.7904 37.1431 59.2739 35.6622L62.2638 32.6724C63.7473 31.1888 66.1523 31.1888 67.6332 32.6724C69.1168 34.1559 69.1168 36.5583 67.6332 38.0418L64.6434 41.0317C63.9018 41.7734 62.9296 42.1431 61.9575 42.1431H61.96Z" fill="white"/>
<path d="M75.3667 54.1029H66.9112C64.815 54.1029 63.1139 52.4016 63.1139 50.3054C63.1139 48.2093 64.815 46.5081 66.9112 46.5081H75.3667C77.463 46.5081 79.1643 48.2093 79.1643 50.3054C79.1643 52.4016 77.463 54.1029 75.3667 54.1029Z" fill="white"/>
<path d="M64.9498 69.0543C63.9777 69.0543 63.0055 68.6847 62.2638 67.9429L59.2739 64.9531C57.7904 63.4697 57.7904 61.0645 59.2739 59.5836C60.7575 58.1001 63.1625 58.1001 64.6434 59.5836L67.6332 62.5734C69.1168 64.057 69.1168 66.462 67.6332 67.9429C66.8916 68.6847 65.9195 69.0543 64.9473 69.0543H64.9498Z" fill="white"/>
<path d="M50.0028 79.4721C47.9066 79.4721 46.2053 77.7709 46.2053 75.6746V67.2191C46.2053 65.123 47.9066 63.4218 50.0028 63.4218C52.0989 63.4218 53.8001 65.123 53.8001 67.2191V75.6746C53.8001 77.7709 52.0989 79.4721 50.0028 79.4721Z" fill="white"/>
<path d="M35.0522 69.0543C34.08 69.0543 33.1079 68.6847 32.3661 67.9429C30.8827 66.4595 30.8827 64.0545 32.3661 62.5734L35.3559 59.5836C36.8395 58.1001 39.2445 58.1001 40.7255 59.5836C42.2091 61.0672 42.2091 63.4722 40.7255 64.9531L37.7357 67.9429C36.9939 68.6847 36.0218 69.0543 35.0497 69.0543H35.0522Z" fill="white"/>
<path d="M33.0852 54.1029H24.6297C22.5334 54.1029 20.8322 52.4016 20.8322 50.3054C20.8322 48.2093 22.5334 46.5081 24.6297 46.5081H33.0852C35.1813 46.5081 36.8825 48.2093 36.8825 50.3054C36.8825 52.4016 35.1813 54.1029 33.0852 54.1029Z" fill="white"/>
<path d="M38.042 42.1431C37.0698 42.1431 36.0977 41.7734 35.3559 41.0317L32.3661 38.0418C30.8827 36.5583 30.8827 34.1559 32.3661 32.6724C33.8497 31.1888 36.2547 31.1888 37.7357 32.6724L40.7255 35.6622C42.2091 37.1458 42.2091 39.5483 40.7255 41.0317C39.9838 41.7734 39.0116 42.1431 38.0395 42.1431H38.042Z" fill="white"/>
<path d="M50.0007 54.5346C52.3355 54.5346 54.2284 52.6418 54.2284 50.3068C54.2284 47.972 52.3355 46.0791 50.0007 46.0791C47.6657 46.0791 45.7728 47.972 45.7728 50.3068C45.7728 52.6418 47.6657 54.5346 50.0007 54.5346Z" fill="white"/>
</g>
</g>
</g>
<defs>
<clipPath id="clip0_802_103">
<rect width="100" height="100" fill="white"/>
</clipPath>
<clipPath id="clip1_802_103">
<rect width="100" height="101.786" fill="white" transform="translate(0 -1)"/>
</clipPath>
</defs>
</svg>
