<svg width="100" height="100" viewBox="0 0 100 100" fill="none" xmlns="http://www.w3.org/2000/svg">
<g clip-path="url(#clip0_803_85)">
<mask id="mask0_803_85" style="mask-type:alpha" maskUnits="userSpaceOnUse" x="0" y="0" width="100" height="100">
<path d="M50 100C77.6142 100 100 77.6142 100 50C100 22.3858 77.6142 0 50 0C22.3858 0 0 22.3858 0 50C0 77.6142 22.3858 100 50 100Z" fill="white"/>
</mask>
<g mask="url(#mask0_803_85)">
<path opacity="0.8" fill-rule="evenodd" clip-rule="evenodd" d="M82 64.7241C82 76.9669 71.9264 86.8916 59.5 86.8916H17V72.1133H59.5C63.6421 72.1133 67 68.8051 67 64.7241C67 60.6432 63.6421 57.335 59.5 57.335H44.5V42.5566H59.5C63.6421 42.5566 67 39.2484 67 35.1675C67 31.0866 63.6421 27.7783 59.5 27.7783H17V13H59.5C71.9264 13 82 22.9247 82 35.1675C82 40.845 79.8336 46.024 76.2708 49.9458C79.8336 53.8677 82 59.0466 82 64.7241Z" fill="#FE815F"/>
<path opacity="0.12" d="M17 72.1133H53.5031C45.7494 81.087 33.4045 86.8916 19.5 86.8916C18.6608 86.8916 17.8272 86.8705 17 86.8288V72.1133ZM61.1498 57.335H47V42.5566H61.1498C61.7073 44.9442 62 47.4153 62 49.9458C62 52.4763 61.7073 54.9475 61.1498 57.335ZM53.5031 27.7783H17V13.0629C17.8272 13.0211 18.6608 13 19.5 13C33.4045 13 45.7494 18.8046 53.5031 27.7783Z" fill="black"/>
<path d="M17 13C37.7107 13 54.5 29.5412 54.5 49.9458C54.5 70.3504 37.7107 86.8916 17 86.8916V72.1133C29.4264 72.1133 39.5 62.1886 39.5 49.9458C39.5 37.703 29.4264 27.7783 17 27.7783V13Z" fill="#FF6238"/>
</g>
</g>
<defs>
<clipPath id="clip0_803_85">
<rect width="100" height="100" fill="white"/>
</clipPath>
</defs>
</svg>
